<?xml version="1.0" encoding="UTF-8"?>
<svg version="1.1" xmlns="http://www.w3.org/2000/svg" width="295" height="295">
<path d="M0 0 C97.35 0 194.7 0 295 0 C295 97.35 295 194.7 295 295 C197.65 295 100.3 295 0 295 C0 197.65 0 100.3 0 0 Z " fill="#FDFDFD" transform="translate(0,0)"/>
<path d="M0 0 C0.95640381 -0.00193359 1.91280762 -0.00386719 2.89819336 -0.00585938 C3.90116455 -0.00134766 4.90413574 0.00316406 5.9375 0.0078125 C6.96174072 0.00974609 7.98598145 0.01167969 9.04125977 0.01367188 C16.3962994 0.05554448 23.61488175 0.40959094 30.9375 1.1328125 C30.9375 9.7128125 30.9375 18.2928125 30.9375 27.1328125 C30.2775 27.1328125 29.6175 27.1328125 28.9375 27.1328125 C28.82535156 26.28009766 28.82535156 26.28009766 28.7109375 25.41015625 C27.65773252 19.22515837 25.79421831 15.19059013 20.9375 11.1328125 C13.76784138 6.06305389 5.39719307 6.22507995 -3.0625 7.1328125 C-9.3825373 8.78109383 -13.45067848 12.83322391 -17.0625 18.1328125 C-20.44213211 23.9908415 -20.90195896 29.52207319 -20.0625 36.1328125 C-16.87486705 47.00491772 -6.4191003 53.31060205 2.15527344 59.77832031 C6.93539143 63.41120999 11.63237704 67.15308822 16.34326172 70.875 C17.78997101 72.01641597 19.24047693 73.15301572 20.69140625 74.2890625 C35.17952624 85.71631207 48.48960619 97.7744686 50.9375 117.1328125 C51.91242852 131.73799165 48.60279852 143.52529977 39.25 154.8203125 C31.41439563 163.29163572 20.54696725 168.60611739 9.04418945 169.30981445 C5.7793786 169.37664975 2.5153807 169.41762414 -0.75 169.4453125 C-1.87083984 169.47431641 -2.99167969 169.50332031 -4.14648438 169.53320312 C-17.25278454 169.63208989 -27.62549913 165.24212942 -37.1015625 156.18359375 C-45.48719003 147.10213756 -49.77534186 135.64602158 -49.41015625 123.27734375 C-48.17531171 112.10824424 -43.5830577 100.70855029 -35.0625 93.1328125 C-34.4025 93.1328125 -33.7425 93.1328125 -33.0625 93.1328125 C-34.71712404 97.43023883 -36.72204505 101.45346167 -38.84375 105.53515625 C-41.71777435 111.66088124 -42.40137927 116.77135664 -42.375 123.4453125 C-42.39111328 124.24904297 -42.40722656 125.05277344 -42.42382812 125.88085938 C-42.43202429 136.06868786 -39.15490932 143.82709764 -32.0625 151.1328125 C-22.76158138 159.18528567 -13.77324313 161.73130256 -1.5859375 161.4140625 C9.4437961 160.53364031 19.68918733 157.10533987 27.3125 148.7578125 C34.46171326 139.62383182 36.1466423 129.84075777 35.29736328 118.45947266 C32.93742956 103.20155653 21.05850834 93.53313386 9.4921875 84.83203125 C5.12598928 81.53859411 0.87278821 78.1079888 -3.38476562 74.67602539 C-6.53606888 72.14023652 -9.70155378 69.6298443 -12.9140625 67.171875 C-30.33455471 53.82370564 -30.33455471 53.82370564 -32.0625 44.1328125 C-32.92214143 31.99037725 -32.64198813 21.81017151 -24.734375 11.984375 C-17.81277428 4.31886393 -10.50354431 0.01386214 0 0 Z " fill="#0F1A52" transform="translate(129.0625,70.8671875)"/>
<path d="M0 0 C8.07248883 7.03317369 12.40264892 16.45422296 14 27 C14.79180935 42.0812059 12.78089815 56.03741805 2.921875 67.9609375 C-4.62762499 75.97077286 -13.0483733 79.57769858 -24.015625 80.16015625 C-33.68059711 80.41863806 -41.28382679 79.13786505 -49 73 C-53.71916825 68.38808558 -55.03614079 64.47368123 -56 58 C-52.22128123 59.25957292 -51.96961788 60.87222255 -50.15234375 64.21875 C-47.53267123 68.2681421 -43.54734841 69.9921605 -39.0625 71.25 C-30.22616216 73.1041276 -22.76822571 71.29241621 -14.75 67.4375 C-6.46571639 60.09461226 -3.4867142 49.80723887 -2.71875 39.06640625 C-2.3478936 28.19398202 -3.63142638 18.61145696 -10.01171875 9.55859375 C-11 8 -11 8 -11 6 C-11.84111328 5.60167969 -11.84111328 5.60167969 -12.69921875 5.1953125 C-15 4 -15 4 -17.20703125 2.4921875 C-27.86595152 -4.12369405 -41.1792376 -3.34801911 -53.26855469 -1.50048828 C-57.5290127 -0.92904501 -61.70335389 -0.77382728 -65.99609375 -0.68359375 C-66.82963882 -0.66281265 -67.6631839 -0.64203156 -68.52198792 -0.62062073 C-71.16041561 -0.55572144 -73.79893491 -0.49652022 -76.4375 -0.4375 C-78.23633724 -0.39425794 -80.03516554 -0.35064192 -81.83398438 -0.30664062 C-86.2225646 -0.20010201 -90.6112361 -0.09867025 -95 0 C-94.67 -0.99 -94.34 -1.98 -94 -3 C-87.40938969 -4.01891745 -80.81530427 -5.01267993 -74.21850586 -5.99072266 C-71.98460398 -6.32474311 -69.7514891 -6.66407953 -67.51928711 -7.00927734 C-18.74182536 -14.53713758 -18.74182536 -14.53713758 0 0 Z " fill="#111B53" transform="translate(206,69)"/>
<path d="M0 0 C0.50789063 0.38671875 1.01578125 0.7734375 1.5390625 1.171875 C2.22742188 1.69265625 2.91578125 2.2134375 3.625 2.75 C4.35035446 3.30497665 5.07570892 3.85995331 5.82304382 4.43174744 C8.13501104 6.17122682 8.13501104 6.17122682 11.45629883 7.84204102 C14 10 14 10 14.7253418 13.86303711 C14.74598669 15.4176933 14.73540541 16.97297165 14.69921875 18.52734375 C14.70910576 19.76624107 14.70910576 19.76624107 14.7191925 21.03016663 C14.73666971 23.66676601 14.7146902 26.30101261 14.6875 28.9375 C14.67618542 31.56994613 14.6735751 34.20168717 14.6879425 36.8341217 C14.6953053 38.47022702 14.68719713 40.1064956 14.6615448 41.74241638 C14.66417681 46.33911076 15.04431744 49.25520637 18 53 C21.93021901 56.14417521 24.99066523 57.5229205 30 58 C30 58.66 30 59.32 30 60 C14.82 60 -0.36 60 -16 60 C-16 59.34 -16 58.68 -16 58 C-14.783125 57.7525 -13.56625 57.505 -12.3125 57.25 C-8.38932931 56.25705591 -5.86977878 54.95418404 -3 52 C-1.38322902 48.61272581 -0.74160819 45.85610637 -0.68115234 42.11791992 C-0.66128265 41.17732224 -0.64141296 40.23672455 -0.62094116 39.2676239 C-0.60938995 38.2653627 -0.59783875 37.2631015 -0.5859375 36.23046875 C-0.56657135 35.19432938 -0.5472052 34.15819 -0.5272522 33.09065247 C-0.46759643 29.78968471 -0.42112669 26.48868181 -0.375 23.1875 C-0.33680737 20.94594855 -0.29775489 18.70441158 -0.2578125 16.46289062 C-0.16190642 10.97538914 -0.07681801 5.48780009 0 0 Z " fill="#111C53" transform="translate(127,150)"/>
<path d="M0 0 C0.680625 -0.00257812 1.36125 -0.00515625 2.0625 -0.0078125 C4 0.125 4 0.125 7 1.125 C7 19.275 7 37.425 7 56.125 C4.36 54.145 1.72 52.165 -1 50.125 C-2.14291504 49.55233398 -3.28583008 48.97966797 -4.46337891 48.38964844 C-7.37781544 45.78769336 -7.4191035 45.26649174 -7.68115234 41.54003906 C-7.68020464 39.65663384 -7.64642955 37.77305875 -7.5859375 35.890625 C-7.57744781 34.89746277 -7.56895813 33.90430054 -7.56021118 32.88104248 C-7.52664388 29.71125459 -7.45135609 26.54401785 -7.375 23.375 C-7.34490481 21.22529717 -7.31752823 19.07555444 -7.29296875 16.92578125 C-7.22684253 11.65798486 -7.12646213 6.39167466 -7 1.125 C-4.32356043 0.23285348 -2.74615622 -0.01040211 0 0 Z " fill="#101A52" transform="translate(134,78.875)"/>
<path d="M0 0 C2 2 2 2 2.3125 5.4375 C2 9 2 9 0.9375 11 C-2.22796524 12.63378851 -4.65020286 11.85267564 -8 11 C-10.31361802 7.52957297 -10.51020728 6.08165827 -10 2 C-6.94783427 -1.63912068 -4.35383535 -1.23043173 0 0 Z " fill="#D1D1D1" transform="translate(251,168)"/>
<path d="M0 0 C1.875 1.125 1.875 1.125 3 3 C3.39365568 6.14924548 3.52854531 8.11909116 1.875 10.875 C-0.92446741 12.55468045 -2.79804064 12.45742277 -6 12 C-8.4375 10.375 -8.4375 10.375 -10 8 C-9.9375 4.875 -9.9375 4.875 -9 2 C-5.53076119 -0.31282587 -4.07794425 -0.42478586 0 0 Z " fill="#D1D1D1" transform="translate(176,9)"/>
<path d="M0 0 C3.96 0 7.92 0 12 0 C12.36180905 7.35678392 12.36180905 7.35678392 10.875 10 C8.10184376 11.47901666 6.08815875 11.38601984 3 11 C1.125 10 1.125 10 0 8 C-0.24131207 5.28121737 -0.1347929 2.7407889 0 0 Z " fill="#CFCFCF" transform="translate(241,85)"/>
<path d="M0 0 C6.0546875 -0.1953125 6.0546875 -0.1953125 8 0 C8.66 0.66 9.32 1.32 10 2 C9.94140625 3.875 9.94140625 3.875 9.5625 6 C8.94303456 9.10060539 8.94303456 9.10060539 10 12 C9.01 11.67 8.02 11.34 7 11 C6.67 10.34 6.34 9.68 6 9 C3.97536745 8.34786708 3.97536745 8.34786708 2 8 C2 9.32 2 10.64 2 12 C1.34 12 0.68 12 0 12 C0 8.04 0 4.08 0 0 Z " fill="#959595" transform="translate(117,277)"/>
<path d="M0 0 C1.875 0.05859375 1.875 0.05859375 4 0.4375 C7.10060539 1.05696544 7.10060539 1.05696544 10 0 C9 3 9 3 7 4 C6.34786708 6.02463255 6.34786708 6.02463255 6 8 C7.32 8 8.64 8 10 8 C10 8.66 10 9.32 10 10 C6.04 10 2.08 10 -2 10 C-2.1953125 3.9453125 -2.1953125 3.9453125 -2 2 C-1.34 1.34 -0.68 0.68 0 0 Z " fill="#959595" transform="translate(49,139)"/>
<path d="M0 0 C3.44165321 0.35299007 5.06872538 1.04581692 8 3 C7.34 4.65 6.68 6.3 6 8 C7.32 8 8.64 8 10 8 C10 8.66 10 9.32 10 10 C6.04 10 2.08 10 -2 10 C-2.1953125 3.9453125 -2.1953125 3.9453125 -2 2 C-1.34 1.34 -0.68 0.68 0 0 Z " fill="#949494" transform="translate(49,62)"/>
<path d="M0 0 C4.55555556 0.55555556 4.55555556 0.55555556 6 2 C6.04080783 3.99958364 6.04254356 6.00045254 6 8 C7.32 8 8.64 8 10 8 C10 8.66 10 9.32 10 10 C6.04 10 2.08 10 -2 10 C-2.1953125 3.9453125 -2.1953125 3.9453125 -2 2 C-1.34 1.34 -0.68 0.68 0 0 Z " fill="#949494" transform="translate(49,154)"/>
<path d="M0 0 C2.3381615 0.29758419 4.67182036 0.63239269 7 1 C7.99 0.67 8.98 0.34 10 0 C10 0.66 10 1.32 10 2 C9.01 2.66 8.02 3.32 7 4 C6.27617533 6.05925139 6.27617533 6.05925139 6 8 C7.32 8.33 8.64 8.66 10 9 C6.04 9 2.08 9 -2 9 C-2.125 5.625 -2.125 5.625 -2 2 C-1.34 1.34 -0.68 0.68 0 0 Z " fill="#818181" transform="translate(49,184)"/>
<path d="M0 0 C3.375 -0.125 3.375 -0.125 7 0 C9 2 9 2 9.125 4.625 C9.08375 5.40875 9.0425 6.1925 9 7 C8.34 7 7.68 7 7 7 C7.33 8.32 7.66 9.64 8 11 C7.34 10.67 6.68 10.34 6 10 C6 9.34 6 8.68 6 8 C4.35 8 2.7 8 1 8 C0.67 9.32 0.34 10.64 0 12 C0 8.04 0 4.08 0 0 Z " fill="#808080" transform="translate(187,277)"/>
<path d="M0 0 C3.375 -0.125 3.375 -0.125 7 0 C9 2 9 2 9.125 4.625 C9.08375 5.40875 9.0425 6.1925 9 7 C8.34 7 7.68 7 7 7 C7.33 8.32 7.66 9.64 8 11 C7.34 10.67 6.68 10.34 6 10 C6 9.34 6 8.68 6 8 C4.35 8 2.7 8 1 8 C0.67 9.32 0.34 10.64 0 12 C0 8.04 0 4.08 0 0 Z " fill="#808080" transform="translate(185,9)"/>
<path d="M0 0 C1.11826172 0.00322266 2.23652344 0.00644531 3.38867188 0.00976562 C4.55591797 0.01814453 5.72316406 0.02652344 6.92578125 0.03515625 C8.10462891 0.03966797 9.28347656 0.04417969 10.49804688 0.04882812 C13.41150914 0.06062352 16.32486988 0.07708355 19.23828125 0.09765625 C17.91828125 0.42765625 16.59828125 0.75765625 15.23828125 1.09765625 C15.23828125 1.75765625 15.23828125 2.41765625 15.23828125 3.09765625 C4.34828125 3.59265625 4.34828125 3.59265625 -6.76171875 4.09765625 C-6.76171875 3.43765625 -6.76171875 2.77765625 -6.76171875 2.09765625 C-7.42171875 1.76765625 -8.08171875 1.43765625 -8.76171875 1.09765625 C-5.58384334 0.03836445 -3.33582932 -0.01693314 0 0 Z " fill="#D2D4DE" transform="translate(127.76171875,67.90234375)"/>
<path d="M0 0 C3.96 0 7.92 0 12 0 C9.9957983 4.0084034 8.50944037 5.41409657 5 8 C7.31 8.33 9.62 8.66 12 9 C12 9.66 12 10.32 12 11 C8.04 11 4.08 11 0 11 C1.11666174 7.65001479 1.74694925 7.20659778 4.5625 5.3125 C5.20316406 4.87550781 5.84382812 4.43851563 6.50390625 3.98828125 C6.99761719 3.66214844 7.49132812 3.33601562 8 3 C5.36 2.67 2.72 2.34 0 2 C0 1.34 0 0.68 0 0 Z " fill="#9C9C9C" transform="translate(241,185)"/>
<path d="M0 0 C0.66 0 1.32 0 2 0 C2 1.65 2 3.3 2 5 C4.31 5 6.62 5 9 5 C9 3.35 9 1.7 9 0 C9.66 0 10.32 0 11 0 C11 3.96 11 7.92 11 12 C10.34 12 9.68 12 9 12 C9 10.35 9 8.7 9 7 C6.69 7 4.38 7 2 7 C2 8.65 2 10.3 2 12 C1.34 12 0.68 12 0 12 C0 8.04 0 4.08 0 0 Z " fill="#A4A4A4" transform="translate(150,9)"/>
<path d="M0 0 C0.66 0 1.32 0 2 0 C3.65 3.96 5.3 7.92 7 12 C6.34 12 5.68 12 5 12 C4.67 11.34 4.34 10.68 4 10 C1.67843403 9.59270772 -0.6568787 9.25561323 -3 9 C-3.33 9.99 -3.66 10.98 -4 12 C-4.33 11.34 -4.66 10.68 -5 10 C-4.00390625 7.6171875 -4.00390625 7.6171875 -2.5625 4.875 C-1.85287109 3.50988281 -1.85287109 3.50988281 -1.12890625 2.1171875 C-0.75636719 1.41851562 -0.38382813 0.71984375 0 0 Z " fill="#909090" transform="translate(136,277)"/>
<path d="M0 0 C5.94 2.475 5.94 2.475 12 5 C12 5.99 12 6.98 12 8 C10.5682384 8.69937202 9.12932968 9.38412718 7.6875 10.0625 C6.88699219 10.44535156 6.08648437 10.82820312 5.26171875 11.22265625 C3 12 3 12 0 11 C0.66 10.67 1.32 10.34 2 10 C2 7.69 2 5.38 2 3 C1.34 2.67 0.68 2.34 0 2 C0 1.34 0 0.68 0 0 Z " fill="#929292" transform="translate(241,131)"/>
<path d="M0 0 C0.66 0 1.32 0 2 0 C2.83819158 1.62249941 3.6704116 3.24808497 4.5 4.875 C4.9640625 5.77992187 5.428125 6.68484375 5.90625 7.6171875 C7 10 7 10 7 12 C6.34 12 5.68 12 5 12 C5 11.01 5 10.02 5 9 C2.36 9 -0.28 9 -3 9 C-3.33 9.99 -3.66 10.98 -4 12 C-4.33 11.34 -4.66 10.68 -5 10 C-4.00390625 7.6171875 -4.00390625 7.6171875 -2.5625 4.875 C-1.85287109 3.50988281 -1.85287109 3.50988281 -1.12890625 2.1171875 C-0.75636719 1.41851562 -0.38382812 0.71984375 0 0 Z " fill="#939393" transform="translate(110,9)"/>
<path d="M0 0 C3.96 0 7.92 0 12 0 C9.66666667 2.33333333 7.33333333 4.66666667 5 7 C7.31 7.33 9.62 7.66 12 8 C12 8.66 12 9.32 12 10 C8.04 10 4.08 10 0 10 C1.11666174 6.65001479 1.74694925 6.20659778 4.5625 4.3125 C5.20316406 3.87550781 5.84382813 3.43851563 6.50390625 2.98828125 C6.99761719 2.66214844 7.49132813 2.33601562 8 2 C5.36 1.67 2.72 1.34 0 1 C0 0.67 0 0.34 0 0 Z " fill="#949494" transform="translate(47,213)"/>
<path d="M0 0 C2.90802461 2.21928194 4.95312762 3.92969143 7 7 C7.33 4.69 7.66 2.38 8 0 C8.66 0 9.32 0 10 0 C10 3.96 10 7.92 10 12 C9.34 12 8.68 12 8 12 C6.4921875 10.25 6.4921875 10.25 4.875 8 C4.33617187 7.2575 3.79734375 6.515 3.2421875 5.75 C2.83226562 5.1725 2.42234375 4.595 2 4 C1.67 6.64 1.34 9.28 1 12 C0.67 12 0.34 12 0 12 C0 8.04 0 4.08 0 0 Z " fill="#8F8F8F" transform="translate(156,277)"/>
<path d="M0 0 C2.97 0 5.94 0 9 0 C9 0.33 9 0.66 9 1 C6.69 1 4.38 1 2 1 C2 2.32 2 3.64 2 5 C3.98 5 5.96 5 8 5 C8 5.66 8 6.32 8 7 C6.02 7 4.04 7 2 7 C2 8.32 2 9.64 2 11 C4.31 11 6.62 11 9 11 C9 11.33 9 11.66 9 12 C6.03 12 3.06 12 0 12 C0 8.04 0 4.08 0 0 Z " fill="#979797" transform="translate(172,277)"/>
<path d="M0 0 C0.33 0 0.66 0 1 0 C1 2.31 1 4.62 1 7 C2.32 7 3.64 7 5 7 C5 5.02 5 3.04 5 1 C5.66 1 6.32 1 7 1 C7 2.98 7 4.96 7 7 C8.32 7 9.64 7 11 7 C11 4.69 11 2.38 11 0 C11.33 0 11.66 0 12 0 C12 2.97 12 5.94 12 9 C8.04 9 4.08 9 0 9 C0 6.03 0 3.06 0 0 Z " fill="#979797" transform="translate(47,125)"/>
<path d="M0 0 C3.96 0 7.92 0 12 0 C12 2.97 12 5.94 12 9 C11.67 9 11.34 9 11 9 C11 6.69 11 4.38 11 2 C9.68 2 8.36 2 7 2 C7 3.98 7 5.96 7 8 C6.34 8 5.68 8 5 8 C5 6.02 5 4.04 5 2 C3.68 2 2.36 2 1 2 C1 4.31 1 6.62 1 9 C0.67 9 0.34 9 0 9 C0 6.03 0 3.06 0 0 Z " fill="#979797" transform="translate(241,70)"/>
<path d="M0 0 C2.31 0.33 4.62 0.66 7 1 C6.125 4.875 6.125 4.875 5 6 C3.33382885 6.04063832 1.66611905 6.042721 0 6 C0 4.02 0 2.04 0 0 Z " fill="#FAFAFA" transform="translate(188,278)"/>
<path d="M0 0 C0.99 0 1.98 0 3 0 C3.33 2.31 3.66 4.62 4 7 C2.02 7 0.04 7 -2 7 C-2.125 4.625 -2.125 4.625 -2 2 C-1.34 1.34 -0.68 0.68 0 0 Z " fill="#FAFAFA" transform="translate(50,185)"/>
<path d="M0 0 C2.31 0.33 4.62 0.66 7 1 C6.125 4.875 6.125 4.875 5 6 C3.33382885 6.04063832 1.66611905 6.042721 0 6 C0 4.02 0 2.04 0 0 Z " fill="#FAFAFA" transform="translate(186,10)"/>
<path d="M0 0 C1.65 0 3.3 0 5 0 C5.38218767 1.65614657 5.71395102 3.32457024 6 5 C5 6 5 6 2.4375 6.0625 C1.2309375 6.0315625 1.2309375 6.0315625 0 6 C0 4.02 0 2.04 0 0 Z " fill="#FBFBFB" transform="translate(119,278)"/>
<path d="M0 0 C1.67542976 0.28604898 3.34385343 0.61781233 5 1 C5 2.65 5 4.3 5 6 C3.02 6 1.04 6 -1 6 C-1.042721 4.33388095 -1.04063832 2.66617115 -1 1 C-0.67 0.67 -0.34 0.34 0 0 Z " fill="#FBFBFB" transform="translate(49,156)"/>
<path d="M0 0 C1.67542976 0.28604898 3.34385343 0.61781233 5 1 C5 2.65 5 4.3 5 6 C3.02 6 1.04 6 -1 6 C-1.042721 4.33388095 -1.04063832 2.66617115 -1 1 C-0.67 0.67 -0.34 0.34 0 0 Z " fill="#FBFBFB" transform="translate(49,141)"/>
<path d="M0 0 C1.67542976 0.28604898 3.34385343 0.61781233 5 1 C5 2.65 5 4.3 5 6 C3.02 6 1.04 6 -1 6 C-1.042721 4.33388095 -1.04063832 2.66617115 -1 1 C-0.67 0.67 -0.34 0.34 0 0 Z " fill="#FDFDFD" transform="translate(49,64)"/>
<path d="M0 0 C2.31 0 4.62 0 7 0 C6.67 0.99 6.34 1.98 6 3 C3.69 3 1.38 3 -1 3 C-0.67 2.01 -0.34 1.02 0 0 Z " fill="#2B3566" transform="translate(112,66)"/>
<path d="M0 0 C0.66 0.33 1.32 0.66 2 1 C2.625 3.5625 2.625 3.5625 3 6 C1.35 6 -0.3 6 -2 6 C-1.34 4.02 -0.68 2.04 0 0 Z " fill="#ECECEC" transform="translate(136,279)"/>
<path d="M0 0 C1.98 0.66 3.96 1.32 6 2 C2.25 5 2.25 5 0 5 C0 3.35 0 1.7 0 0 Z " fill="#EFEFEF" transform="translate(245,135)"/>
<path d="M0 0 C0.66 0 1.32 0 2 0 C2.66 1.65 3.32 3.3 4 5 C2.02 5 0.04 5 -2 5 C-1.34 3.35 -0.68 1.7 0 0 Z " fill="#EBEBEB" transform="translate(110,12)"/>
<path d="M0 0 C0.66 0 1.32 0 2 0 C2 0.66 2 1.32 2 2 C4.97 2 7.94 2 11 2 C11 2.33 11 2.66 11 3 C7.04 3 3.08 3 -1 3 C-0.67 2.01 -0.34 1.02 0 0 Z " fill="#8E8E8E" transform="translate(48,220)"/>
<path d="M0 0 C0.66 0 1.32 0 2 0 C1.25 2.4375 1.25 2.4375 0 5 C-2.125 5.8125 -2.125 5.8125 -4 6 C-2.84826645 3.53199953 -1.95216435 1.95216435 0 0 Z " fill="#192459" transform="translate(94,164)"/>
</svg>
